<mxfile host="app.diagrams.net" agent="Mozilla/5.0 (Windows NT 10.0; Win64; x64; rv:137.0) Gecko/20100101 Firefox/137.0" version="26.2.14">
  <diagram name="Page-1" id="HXpyyeB6FARbqLuSaLaP">
    <mxGraphModel dx="1158" dy="594" grid="1" gridSize="10" guides="1" tooltips="1" connect="1" arrows="1" fold="1" page="1" pageScale="1" pageWidth="827" pageHeight="1169" math="0" shadow="0">
      <root>
        <mxCell id="0" />
        <mxCell id="1" parent="0" />
        <mxCell id="ciugVP7JTnhn2zJ3oB86-10" value="&amp;nbsp;&amp;nbsp; Plugins" style="rounded=1;whiteSpace=wrap;html=1;fillColor=#d5e8d4;strokeColor=#82B366;align=left;verticalAlign=top;fontColor=#82B366;arcSize=4;" parent="1" vertex="1">
          <mxGeometry x="40" y="600" width="770" height="550" as="geometry" />
        </mxCell>
        <mxCell id="ciugVP7JTnhn2zJ3oB86-9" value="&amp;nbsp; &amp;nbsp;Application Code" style="rounded=1;whiteSpace=wrap;html=1;fillColor=#dae8fc;strokeColor=#6c8ebf;align=left;verticalAlign=top;fontColor=#6C8EBF;arcSize=4;" parent="1" vertex="1">
          <mxGeometry x="50" y="770" width="750" height="370" as="geometry" />
        </mxCell>
        <mxCell id="ciugVP7JTnhn2zJ3oB86-8" value="&amp;nbsp; &amp;nbsp;Domain Code" style="rounded=1;whiteSpace=wrap;html=1;fillColor=#e1d5e7;strokeColor=#9673a6;align=left;verticalAlign=top;fontStyle=0;fontColor=#9673A6;arcSize=3;" parent="1" vertex="1">
          <mxGeometry x="510" y="780" width="280" height="350" as="geometry" />
        </mxCell>
        <mxCell id="ciugVP7JTnhn2zJ3oB86-12" value="PersonalData" style="rounded=0;whiteSpace=wrap;html=1;fontStyle=1" parent="1" vertex="1">
          <mxGeometry x="520" y="1070" width="120" height="50" as="geometry" />
        </mxCell>
        <mxCell id="ciugVP7JTnhn2zJ3oB86-21" style="rounded=0;orthogonalLoop=1;jettySize=auto;html=1;exitX=0.5;exitY=1;exitDx=0;exitDy=0;entryX=0.5;entryY=0;entryDx=0;entryDy=0;endArrow=openThin;endFill=0;" parent="1" source="ciugVP7JTnhn2zJ3oB86-13" target="ciugVP7JTnhn2zJ3oB86-12" edge="1">
          <mxGeometry relative="1" as="geometry" />
        </mxCell>
        <mxCell id="ciugVP7JTnhn2zJ3oB86-13" value="Patient" style="rounded=0;whiteSpace=wrap;html=1;fontStyle=1" parent="1" vertex="1">
          <mxGeometry x="520" y="1000" width="120" height="50" as="geometry" />
        </mxCell>
        <mxCell id="ciugVP7JTnhn2zJ3oB86-18" style="rounded=0;orthogonalLoop=1;jettySize=auto;html=1;exitX=0.5;exitY=1;exitDx=0;exitDy=0;entryX=0.5;entryY=0;entryDx=0;entryDy=0;endArrow=openThin;endFill=0;" parent="1" source="ciugVP7JTnhn2zJ3oB86-16" target="ciugVP7JTnhn2zJ3oB86-17" edge="1">
          <mxGeometry relative="1" as="geometry" />
        </mxCell>
        <mxCell id="ciugVP7JTnhn2zJ3oB86-16" value="Crisis&lt;div&gt;Intervention&lt;span style=&quot;background-color: transparent; color: light-dark(rgb(0, 0, 0), rgb(255, 255, 255));&quot;&gt;Area&lt;/span&gt;&lt;/div&gt;" style="rounded=0;whiteSpace=wrap;html=1;fontStyle=1" parent="1" vertex="1">
          <mxGeometry x="660" y="1000" width="120" height="50" as="geometry" />
        </mxCell>
        <mxCell id="ciugVP7JTnhn2zJ3oB86-17" value="RoomData" style="rounded=0;whiteSpace=wrap;html=1;fontStyle=1" parent="1" vertex="1">
          <mxGeometry x="660" y="1070" width="120" height="50" as="geometry" />
        </mxCell>
        <mxCell id="ciugVP7JTnhn2zJ3oB86-40" style="edgeStyle=orthogonalEdgeStyle;rounded=0;orthogonalLoop=1;jettySize=auto;html=1;exitX=0.5;exitY=1;exitDx=0;exitDy=0;entryX=0.5;entryY=0;entryDx=0;entryDy=0;endArrow=blockThin;endFill=0;" parent="1" source="ciugVP7JTnhn2zJ3oB86-32" target="ciugVP7JTnhn2zJ3oB86-22" edge="1">
          <mxGeometry relative="1" as="geometry" />
        </mxCell>
        <mxCell id="ciugVP7JTnhn2zJ3oB86-22" value="&lt;div&gt;&lt;font style=&quot;background-color: light-dark(#ffffff, var(--ge-dark-color, #121212));&quot; face=&quot;Helvetica&quot;&gt;&lt;span style=&quot;text-align: left; white-space-collapse: break-spaces;&quot;&gt;«i&lt;/span&gt;nterface&lt;span style=&quot;text-align: left; white-space-collapse: break-spaces; color: rgb(34, 34, 34);&quot;&gt;&lt;font&gt;»&lt;/font&gt;&lt;/span&gt;&lt;/font&gt;&lt;/div&gt;&lt;font&gt;&lt;b style=&quot;background-color: light-dark(#ffffff, var(--ge-dark-color, #121212));&quot;&gt;PatientRepository&lt;/b&gt;&lt;/font&gt;" style="rounded=0;whiteSpace=wrap;html=1;" parent="1" vertex="1">
          <mxGeometry x="520" y="820" width="120" height="50" as="geometry" />
        </mxCell>
        <mxCell id="ciugVP7JTnhn2zJ3oB86-37" style="edgeStyle=orthogonalEdgeStyle;rounded=0;orthogonalLoop=1;jettySize=auto;html=1;exitX=0.5;exitY=1;exitDx=0;exitDy=0;entryX=0.5;entryY=0;entryDx=0;entryDy=0;endArrow=blockThin;endFill=0;" parent="1" source="ciugVP7JTnhn2zJ3oB86-28" target="ciugVP7JTnhn2zJ3oB86-25" edge="1">
          <mxGeometry relative="1" as="geometry" />
        </mxCell>
        <mxCell id="ciugVP7JTnhn2zJ3oB86-25" value="&lt;div&gt;&lt;font style=&quot;background-color: light-dark(#ffffff, var(--ge-dark-color, #121212));&quot; face=&quot;Helvetica&quot;&gt;&lt;span style=&quot;text-align: left; white-space-collapse: break-spaces;&quot;&gt;«i&lt;/span&gt;nterface&lt;span style=&quot;text-align: left; white-space-collapse: break-spaces;&quot;&gt;&lt;font style=&quot;&quot;&gt;»&lt;/font&gt;&lt;/span&gt;&lt;/font&gt;&lt;/div&gt;&lt;font&gt;&lt;b style=&quot;background-color: light-dark(#ffffff, var(--ge-dark-color, #121212));&quot;&gt;CrisisIntervention-&lt;/b&gt;&lt;/font&gt;&lt;div&gt;&lt;font&gt;&lt;b style=&quot;background-color: light-dark(#ffffff, var(--ge-dark-color, #121212));&quot;&gt;AreaRepository&lt;/b&gt;&lt;/font&gt;&lt;/div&gt;" style="rounded=0;whiteSpace=wrap;html=1;" parent="1" vertex="1">
          <mxGeometry x="660" y="820" width="120" height="50" as="geometry" />
        </mxCell>
        <mxCell id="XktRI2O6_ttTCHs1lG7r-28" style="rounded=0;orthogonalLoop=1;jettySize=auto;html=1;exitX=0.5;exitY=1;exitDx=0;exitDy=0;entryX=0.5;entryY=0;entryDx=0;entryDy=0;endArrow=openThin;endFill=0;" parent="1" source="ciugVP7JTnhn2zJ3oB86-27" target="XktRI2O6_ttTCHs1lG7r-26" edge="1">
          <mxGeometry relative="1" as="geometry" />
        </mxCell>
        <mxCell id="XktRI2O6_ttTCHs1lG7r-29" style="rounded=0;orthogonalLoop=1;jettySize=auto;html=1;exitX=0.5;exitY=1;exitDx=0;exitDy=0;entryX=0.5;entryY=0;entryDx=0;entryDy=0;endArrow=openThin;endFill=0;" parent="1" source="ciugVP7JTnhn2zJ3oB86-27" target="XktRI2O6_ttTCHs1lG7r-25" edge="1">
          <mxGeometry relative="1" as="geometry" />
        </mxCell>
        <mxCell id="ciugVP7JTnhn2zJ3oB86-27" value="&lt;b&gt;ConsoleAdapter&lt;/b&gt;" style="rounded=0;whiteSpace=wrap;html=1;" parent="1" vertex="1">
          <mxGeometry x="150" y="630" width="120" height="50" as="geometry" />
        </mxCell>
        <mxCell id="ciugVP7JTnhn2zJ3oB86-41" style="rounded=0;orthogonalLoop=1;jettySize=auto;html=1;exitX=0.5;exitY=0;exitDx=0;exitDy=0;entryX=0.75;entryY=1;entryDx=0;entryDy=0;endArrow=openThin;endFill=0;" parent="1" source="ciugVP7JTnhn2zJ3oB86-28" target="ciugVP7JTnhn2zJ3oB86-34" edge="1">
          <mxGeometry relative="1" as="geometry" />
        </mxCell>
        <mxCell id="ciugVP7JTnhn2zJ3oB86-28" value="&lt;div&gt;&lt;b style=&quot;color: light-dark(rgb(0, 0, 0), rgb(255, 255, 255)); background-color: light-dark(#ffffff, var(--ge-dark-color, #121212));&quot;&gt;FileCrisis-&lt;/b&gt;&lt;/div&gt;&lt;div&gt;&lt;b style=&quot;color: light-dark(rgb(0, 0, 0), rgb(255, 255, 255)); background-color: light-dark(#ffffff, var(--ge-dark-color, #121212));&quot;&gt;Intervention&lt;/b&gt;&lt;b style=&quot;color: light-dark(rgb(0, 0, 0), rgb(255, 255, 255)); background-color: light-dark(#ffffff, var(--ge-dark-color, #121212));&quot;&gt;Area-&lt;/b&gt;&lt;/div&gt;&lt;div&gt;&lt;b style=&quot;color: light-dark(rgb(0, 0, 0), rgb(255, 255, 255)); background-color: light-dark(#ffffff, var(--ge-dark-color, #121212));&quot;&gt;Repository&lt;/b&gt;&lt;/div&gt;" style="rounded=0;whiteSpace=wrap;html=1;" parent="1" vertex="1">
          <mxGeometry x="660" y="700" width="120" height="50" as="geometry" />
        </mxCell>
        <mxCell id="ciugVP7JTnhn2zJ3oB86-44" style="rounded=0;orthogonalLoop=1;jettySize=auto;html=1;exitX=0.5;exitY=0;exitDx=0;exitDy=0;entryX=0.25;entryY=1;entryDx=0;entryDy=0;endArrow=openThin;endFill=0;" parent="1" source="ciugVP7JTnhn2zJ3oB86-32" target="ciugVP7JTnhn2zJ3oB86-34" edge="1">
          <mxGeometry relative="1" as="geometry" />
        </mxCell>
        <mxCell id="ciugVP7JTnhn2zJ3oB86-32" value="&lt;div&gt;&lt;span style=&quot;background-color: rgb(255, 255, 255);&quot;&gt;&lt;b&gt;FilePatient&lt;/b&gt;&lt;/span&gt;&lt;/div&gt;&lt;div&gt;&lt;span style=&quot;background-color: rgb(255, 255, 255);&quot;&gt;&lt;b&gt;Repository&lt;/b&gt;&lt;/span&gt;&lt;/div&gt;" style="rounded=0;whiteSpace=wrap;html=1;" parent="1" vertex="1">
          <mxGeometry x="520" y="700" width="120" height="50" as="geometry" />
        </mxCell>
        <mxCell id="ciugVP7JTnhn2zJ3oB86-36" style="edgeStyle=orthogonalEdgeStyle;rounded=0;orthogonalLoop=1;jettySize=auto;html=1;exitX=0.5;exitY=0;exitDx=0;exitDy=0;entryX=0.5;entryY=1;entryDx=0;entryDy=0;endArrow=openThin;endFill=0;dashed=1;" parent="1" source="ciugVP7JTnhn2zJ3oB86-34" target="ciugVP7JTnhn2zJ3oB86-35" edge="1">
          <mxGeometry relative="1" as="geometry" />
        </mxCell>
        <mxCell id="ciugVP7JTnhn2zJ3oB86-34" value="&lt;b&gt;FileSerializer&lt;/b&gt;" style="rounded=0;whiteSpace=wrap;html=1;" parent="1" vertex="1">
          <mxGeometry x="590" y="630" width="120" height="50" as="geometry" />
        </mxCell>
        <mxCell id="ciugVP7JTnhn2zJ3oB86-35" value="&lt;b&gt;Gson&lt;/b&gt;" style="rounded=0;whiteSpace=wrap;html=1;" parent="1" vertex="1">
          <mxGeometry x="590" y="530" width="120" height="50" as="geometry" />
        </mxCell>
        <mxCell id="U4T1VRbJxcwvKo35WCAo-6" style="edgeStyle=orthogonalEdgeStyle;rounded=0;orthogonalLoop=1;jettySize=auto;html=1;exitX=0.5;exitY=0;exitDx=0;exitDy=0;entryX=0.5;entryY=1;entryDx=0;entryDy=0;endArrow=openThin;endFill=0;" edge="1" parent="1" source="XktRI2O6_ttTCHs1lG7r-1" target="ciugVP7JTnhn2zJ3oB86-22">
          <mxGeometry relative="1" as="geometry">
            <Array as="points">
              <mxPoint x="430" y="890" />
              <mxPoint x="580" y="890" />
            </Array>
          </mxGeometry>
        </mxCell>
        <mxCell id="U4T1VRbJxcwvKo35WCAo-7" style="edgeStyle=orthogonalEdgeStyle;rounded=0;orthogonalLoop=1;jettySize=auto;html=1;exitX=0.5;exitY=0;exitDx=0;exitDy=0;entryX=0.5;entryY=0;entryDx=0;entryDy=0;endArrow=openThin;endFill=0;" edge="1" parent="1" source="XktRI2O6_ttTCHs1lG7r-1" target="U4T1VRbJxcwvKo35WCAo-1">
          <mxGeometry relative="1" as="geometry">
            <Array as="points">
              <mxPoint x="430" y="890" />
              <mxPoint x="650" y="890" />
            </Array>
          </mxGeometry>
        </mxCell>
        <mxCell id="XktRI2O6_ttTCHs1lG7r-1" value="PatientService" style="rounded=0;whiteSpace=wrap;html=1;fontStyle=1" parent="1" vertex="1">
          <mxGeometry x="370" y="910" width="120" height="50" as="geometry" />
        </mxCell>
        <mxCell id="U4T1VRbJxcwvKo35WCAo-9" style="edgeStyle=orthogonalEdgeStyle;rounded=0;orthogonalLoop=1;jettySize=auto;html=1;exitX=0.5;exitY=0;exitDx=0;exitDy=0;entryX=0.25;entryY=0;entryDx=0;entryDy=0;endArrow=openThin;endFill=0;" edge="1" parent="1" source="XktRI2O6_ttTCHs1lG7r-2" target="ciugVP7JTnhn2zJ3oB86-25">
          <mxGeometry relative="1" as="geometry" />
        </mxCell>
        <mxCell id="XktRI2O6_ttTCHs1lG7r-2" value="CrisisIntervention-&lt;div&gt;AreaService&lt;/div&gt;" style="rounded=0;whiteSpace=wrap;html=1;fontStyle=1" parent="1" vertex="1">
          <mxGeometry x="370" y="820" width="120" height="50" as="geometry" />
        </mxCell>
        <mxCell id="XktRI2O6_ttTCHs1lG7r-22" style="edgeStyle=orthogonalEdgeStyle;rounded=0;orthogonalLoop=1;jettySize=auto;html=1;exitX=1;exitY=0.5;exitDx=0;exitDy=0;endArrow=blockThin;endFill=0;" parent="1" source="XktRI2O6_ttTCHs1lG7r-6" edge="1">
          <mxGeometry relative="1" as="geometry">
            <mxPoint x="200" y="870" as="targetPoint" />
          </mxGeometry>
        </mxCell>
        <mxCell id="XktRI2O6_ttTCHs1lG7r-6" value="CreateCia-Command" style="rounded=0;whiteSpace=wrap;html=1;fontStyle=1" parent="1" vertex="1">
          <mxGeometry x="60" y="1020" width="120" height="50" as="geometry" />
        </mxCell>
        <mxCell id="XktRI2O6_ttTCHs1lG7r-21" style="edgeStyle=orthogonalEdgeStyle;rounded=0;orthogonalLoop=1;jettySize=auto;html=1;exitX=0;exitY=0.5;exitDx=0;exitDy=0;entryX=0.5;entryY=1;entryDx=0;entryDy=0;endArrow=blockThin;endFill=0;" parent="1" source="XktRI2O6_ttTCHs1lG7r-7" target="XktRI2O6_ttTCHs1lG7r-16" edge="1">
          <mxGeometry relative="1" as="geometry" />
        </mxCell>
        <mxCell id="XktRI2O6_ttTCHs1lG7r-7" value="CreatePatient-&lt;div&gt;Command&lt;/div&gt;" style="rounded=0;whiteSpace=wrap;html=1;fontStyle=1" parent="1" vertex="1">
          <mxGeometry x="220" y="1020" width="120" height="50" as="geometry" />
        </mxCell>
        <mxCell id="XktRI2O6_ttTCHs1lG7r-23" style="edgeStyle=orthogonalEdgeStyle;rounded=0;orthogonalLoop=1;jettySize=auto;html=1;exitX=1;exitY=0.5;exitDx=0;exitDy=0;entryX=0.5;entryY=1;entryDx=0;entryDy=0;endArrow=blockThin;endFill=0;" parent="1" source="XktRI2O6_ttTCHs1lG7r-8" target="XktRI2O6_ttTCHs1lG7r-16" edge="1">
          <mxGeometry relative="1" as="geometry" />
        </mxCell>
        <mxCell id="XktRI2O6_ttTCHs1lG7r-8" value="DeleteCia-&lt;div&gt;Command&lt;/div&gt;" style="rounded=0;whiteSpace=wrap;html=1;fontStyle=1" parent="1" vertex="1">
          <mxGeometry x="60" y="1080" width="120" height="50" as="geometry" />
        </mxCell>
        <mxCell id="XktRI2O6_ttTCHs1lG7r-24" style="edgeStyle=orthogonalEdgeStyle;rounded=0;orthogonalLoop=1;jettySize=auto;html=1;exitX=0;exitY=0.5;exitDx=0;exitDy=0;endArrow=blockThin;endFill=0;" parent="1" source="XktRI2O6_ttTCHs1lG7r-9" edge="1">
          <mxGeometry relative="1" as="geometry">
            <mxPoint x="200" y="870" as="targetPoint" />
          </mxGeometry>
        </mxCell>
        <mxCell id="XktRI2O6_ttTCHs1lG7r-9" value="DeletePatient-&lt;div&gt;Command&lt;/div&gt;" style="rounded=0;whiteSpace=wrap;html=1;fontStyle=1" parent="1" vertex="1">
          <mxGeometry x="220" y="1080" width="120" height="50" as="geometry" />
        </mxCell>
        <mxCell id="XktRI2O6_ttTCHs1lG7r-19" style="edgeStyle=orthogonalEdgeStyle;rounded=0;orthogonalLoop=1;jettySize=auto;html=1;exitX=0;exitY=0.5;exitDx=0;exitDy=0;endArrow=blockThin;endFill=0;" parent="1" source="XktRI2O6_ttTCHs1lG7r-12" edge="1">
          <mxGeometry relative="1" as="geometry">
            <mxPoint x="200" y="870" as="targetPoint" />
          </mxGeometry>
        </mxCell>
        <mxCell id="XktRI2O6_ttTCHs1lG7r-12" value="EditPatient-&lt;div&gt;Command&lt;/div&gt;" style="rounded=0;whiteSpace=wrap;html=1;fontStyle=1" parent="1" vertex="1">
          <mxGeometry x="220" y="960" width="120" height="50" as="geometry" />
        </mxCell>
        <mxCell id="XktRI2O6_ttTCHs1lG7r-17" style="edgeStyle=orthogonalEdgeStyle;rounded=0;orthogonalLoop=1;jettySize=auto;html=1;exitX=0;exitY=0.5;exitDx=0;exitDy=0;entryX=0.5;entryY=1;entryDx=0;entryDy=0;endArrow=blockThin;endFill=0;" parent="1" source="XktRI2O6_ttTCHs1lG7r-13" target="XktRI2O6_ttTCHs1lG7r-16" edge="1">
          <mxGeometry relative="1" as="geometry" />
        </mxCell>
        <mxCell id="XktRI2O6_ttTCHs1lG7r-13" value="ListPatients-&lt;div&gt;Command&lt;/div&gt;" style="rounded=0;whiteSpace=wrap;html=1;fontStyle=1" parent="1" vertex="1">
          <mxGeometry x="220" y="900" width="120" height="50" as="geometry" />
        </mxCell>
        <mxCell id="XktRI2O6_ttTCHs1lG7r-20" style="edgeStyle=orthogonalEdgeStyle;rounded=0;orthogonalLoop=1;jettySize=auto;html=1;exitX=1;exitY=0.5;exitDx=0;exitDy=0;endArrow=blockThin;endFill=0;" parent="1" source="XktRI2O6_ttTCHs1lG7r-14" edge="1">
          <mxGeometry relative="1" as="geometry">
            <mxPoint x="200" y="870" as="targetPoint" />
          </mxGeometry>
        </mxCell>
        <mxCell id="XktRI2O6_ttTCHs1lG7r-14" value="EditCia-&lt;div&gt;Command&lt;/div&gt;" style="rounded=0;whiteSpace=wrap;html=1;fontStyle=1" parent="1" vertex="1">
          <mxGeometry x="60" y="960" width="120" height="50" as="geometry" />
        </mxCell>
        <mxCell id="XktRI2O6_ttTCHs1lG7r-18" style="edgeStyle=orthogonalEdgeStyle;rounded=0;orthogonalLoop=1;jettySize=auto;html=1;exitX=1;exitY=0.5;exitDx=0;exitDy=0;entryX=0.5;entryY=1;entryDx=0;entryDy=0;endArrow=blockThin;endFill=0;" parent="1" source="XktRI2O6_ttTCHs1lG7r-15" target="XktRI2O6_ttTCHs1lG7r-16" edge="1">
          <mxGeometry relative="1" as="geometry" />
        </mxCell>
        <mxCell id="XktRI2O6_ttTCHs1lG7r-15" value="ListCias-&lt;div&gt;Command&lt;/div&gt;" style="rounded=0;whiteSpace=wrap;html=1;fontStyle=1" parent="1" vertex="1">
          <mxGeometry x="60" y="900" width="120" height="50" as="geometry" />
        </mxCell>
        <mxCell id="XktRI2O6_ttTCHs1lG7r-16" value="&lt;div&gt;&lt;font style=&quot;background-color: light-dark(#ffffff, var(--ge-dark-color, #121212));&quot; face=&quot;Helvetica&quot;&gt;&lt;span style=&quot;text-align: left; white-space-collapse: break-spaces;&quot;&gt;«i&lt;/span&gt;nterface&lt;span style=&quot;text-align: left; white-space-collapse: break-spaces; color: rgb(34, 34, 34);&quot;&gt;&lt;font&gt;»&lt;/font&gt;&lt;/span&gt;&lt;/font&gt;&lt;/div&gt;&lt;font&gt;&lt;b style=&quot;background-color: light-dark(#ffffff, var(--ge-dark-color, #121212));&quot;&gt;Command&lt;/b&gt;&lt;/font&gt;" style="rounded=0;whiteSpace=wrap;html=1;" parent="1" vertex="1">
          <mxGeometry x="140" y="820" width="120" height="50" as="geometry" />
        </mxCell>
        <mxCell id="XktRI2O6_ttTCHs1lG7r-25" value="&lt;b&gt;CommandParser&lt;/b&gt;" style="rounded=0;whiteSpace=wrap;html=1;" parent="1" vertex="1">
          <mxGeometry x="80" y="700" width="120" height="50" as="geometry" />
        </mxCell>
        <mxCell id="XktRI2O6_ttTCHs1lG7r-27" style="rounded=0;orthogonalLoop=1;jettySize=auto;html=1;exitX=0.5;exitY=1;exitDx=0;exitDy=0;entryX=0.5;entryY=0;entryDx=0;entryDy=0;endArrow=openThin;endFill=0;" parent="1" source="XktRI2O6_ttTCHs1lG7r-26" target="XktRI2O6_ttTCHs1lG7r-16" edge="1">
          <mxGeometry relative="1" as="geometry" />
        </mxCell>
        <mxCell id="XktRI2O6_ttTCHs1lG7r-26" value="&lt;b&gt;CommandRegistry&lt;/b&gt;" style="rounded=0;whiteSpace=wrap;html=1;" parent="1" vertex="1">
          <mxGeometry x="220" y="700" width="120" height="50" as="geometry" />
        </mxCell>
        <mxCell id="U4T1VRbJxcwvKo35WCAo-1" value="PatientMover" style="rounded=0;whiteSpace=wrap;html=1;fontStyle=1" vertex="1" parent="1">
          <mxGeometry x="590" y="910" width="120" height="50" as="geometry" />
        </mxCell>
      </root>
    </mxGraphModel>
  </diagram>
</mxfile>
